<?xml version="1.0" encoding="utf-8" ?>
<svg xmlns="http://www.w3.org/2000/svg" xmlns:xlink="http://www.w3.org/1999/xlink" width="663" height="663">
	<path fill="#FFD000" transform="matrix(1.29492 0 0 1.29492 -6.10352e-05 7.62939e-06)" d="M334.337 68.3553C355.297 67.2369 378.159 78.1456 393.194 92.2331C423.576 120.701 429.793 162.492 410.667 198.955C405.843 208.15 391.805 228.82 379.949 228.878C375.166 228.901 371.706 224.121 368.588 221.1L359.087 211.948C356.28 213.171 353.373 214.281 350.84 216.022C349.419 221.207 347.158 235.083 341.54 237.4C329.547 242.345 284.597 226.784 278.293 210.431C280.419 204.229 285.343 199.382 288.564 193.744C287.641 192.144 280.847 182.05 280.042 181.54C263.425 180.558 257.228 188.698 254.163 168.658C251.691 152.497 253.508 135.44 259.691 120.258C254.782 121.694 249.316 121.831 244.261 122.595C227.096 125.19 212.369 130.307 199.363 142.273C202.742 144.793 203.07 150.729 203.808 154.605C206.563 152.798 209.837 149.702 213.286 149.6C223.675 149.293 214.536 161.106 205.064 160.411C205.386 162.893 206.065 165.252 206.731 167.657C210.16 165.755 217.84 159.992 221.954 161.84C231.022 165.913 210.813 174.157 208.253 174.87C208.844 177.114 209.474 179.328 210.175 181.54C213.344 179.153 219.648 174.482 223.826 176.021C231.735 178.937 214.917 187.957 212.392 188.907C221.976 215.746 234.054 216.887 255.532 230.68C268.818 239.212 275.901 251.551 282.276 265.65C285.435 264.382 288.39 262.696 291.658 261.71C300.408 266.045 288.279 270.749 284.841 273.144L284.562 273.34C284.731 274.563 284.944 275.719 285.262 276.915C287.321 276.225 299.135 269.759 298.79 276.154C298.341 284.474 285.435 279.265 287.639 288.736C291.96 287.488 296.073 285.769 300.46 284.688L300.679 284.761C311.957 288.636 291.007 295.528 288.564 296.432C290.517 312.855 288.635 330.415 286.393 346.711C292.738 346.692 299.063 346.59 305.32 347.837C324.528 315.134 337.598 283.941 346.284 247.08C346.969 244.175 351.126 221.286 353.427 229.028C355.322 235.404 354.033 244.772 353.377 251.352C349.271 292.509 337.855 319.023 318.427 353.706C324.31 357.316 329.605 361.313 333.718 366.935C345.514 385.45 329.5 421.905 314.376 433.613C305.168 440.741 293.162 443.32 281.729 441.822C257.042 438.588 228.735 405.745 232.167 380.814C233.524 370.952 239.222 366.3 246.706 360.654C212.186 333.086 196.68 304.651 176.625 267.746C172.63 273.065 167.918 278.111 164.373 283.723C175.063 298.985 169.605 322.656 150.563 326.315C136.34 329.048 119.883 318.517 117.153 304.152C112.655 280.485 139.669 262.29 159.482 275.935C164.301 270.402 168.635 264.477 173.518 258.96C166.292 241.788 165.713 229.812 161.564 213.252C154.995 213.297 148.298 211.405 141.718 211.948C137.18 229.06 123.791 241.241 105.656 235.704C75.8218 226.595 93.8702 174.383 122.908 183.819C132.593 186.966 137.39 194.984 141.718 203.528C146.768 203.526 156.511 204.618 161.564 205.564C161.297 180.111 165.852 169.513 176.144 148.162C170.549 143.893 161.348 137.198 156.435 132.355C133.83 150.329 105.7 131.158 113.518 108.738C123.402 80.3929 176.973 84.864 161.564 126.477L180.522 141.462C190.832 127.915 206.263 117.566 222.617 112.913C231.722 110.323 254.491 107.413 262.706 112C266.678 107.717 269.164 102.127 273.03 97.6377C288.179 80.0438 311.516 70.1023 334.337 68.3553ZM197.009 144.186C194.102 148.446 190.716 152.18 188.072 156.664C154.874 212.967 200.196 293.859 239.369 334.731C243.471 339.011 254.439 350.96 259.683 352.661L260.5 352.487C266.144 350.297 271.576 348.623 277.608 347.837C283.896 319.21 282.859 278.361 267.113 253.698C252.051 230.107 227.45 233.511 210.75 205.116C202.746 191.507 198.234 175.831 197.269 160.091C197.135 157.896 197.292 144.988 197.009 144.186ZM377.464 128.619C376.176 127.597 375.229 126.433 374.347 125.061C371.232 123.218 368.78 120.47 365.699 118.576C343.085 104.67 313.463 105.345 298.474 129.578C286.122 149.549 292.905 178.493 312.973 190.697C349.955 213.189 392.673 180.417 381.972 139.495C380.958 135.617 378.76 132.347 377.464 128.619ZM247.948 392.37C253.463 391.79 297.22 385.293 298.864 385.825C296.507 387.352 265.999 393.637 260.5 395.118C263.95 397.078 277.758 396.397 283.095 400.221C296.048 398.484 308.837 395.749 321.846 394.32C323.9 385.154 326.624 376.127 317.086 370.403C303.005 361.952 257.101 365.269 248.104 381.087C246.041 384.713 246.914 388.607 247.948 392.37ZM343.614 78.2885C347.462 82.0489 346.816 86.8185 346.787 91.7321C350.744 93.969 355.758 94.5516 360.082 95.9817C358.104 98.654 354.821 102.356 355.45 105.9C356.617 112.47 363.759 107.504 366.354 103.975C368.366 109.609 373.376 111.672 377.464 115.37C375.056 118.416 373.343 121.128 374.347 125.061C375.229 126.433 376.176 127.597 377.464 128.619C384.099 129.898 385.042 123.988 388.279 119.314C396.192 126.505 403.874 136.403 405.358 147.247C409.706 148.813 412.966 153.972 406.237 154.605C406.262 168.089 404.561 180.813 399.461 193.327C398.726 195.128 395.857 200.027 395.891 201.505C397.485 199.88 398.836 197.52 400.1 195.61C433.125 145.714 401.319 83.9325 343.614 78.2885ZM132.282 284.688C131.209 285.32 130.225 285.944 129.27 286.752C130.336 297.712 135.894 307.447 147.072 309.986C137.779 312.252 131.431 305.133 126.091 298.562C130.013 311.632 141.533 320.596 154.654 313.127C174.203 301.999 160.009 267.824 132.282 284.688ZM309.192 83.7673C313.303 87.7246 319.498 94.4694 319.503 100.618C319.506 104.661 316.863 105.357 313.461 103.975C310.331 100.282 305.779 91.3667 303.228 86.6964C296.658 91.0824 289.514 94.553 284.562 100.956L284.966 101.099C300.581 91.9686 297.829 118.858 316.623 109.269C331.203 101.83 321.518 91.4261 336.829 91.7321C337.257 89.2819 338.888 80.432 337.826 78.507C332.831 75.5136 314.843 80.6858 309.192 83.7673ZM122.694 112C124.859 111.144 126.745 109.75 128.893 108.871C135.055 106.35 147.032 107.187 150.146 114.288C152.31 119.226 150.332 123.291 148.337 127.674C161.581 121.742 162.293 104.292 149.24 100.064C139.195 96.8098 126.117 101.301 122.694 112ZM102.783 199.534C108.528 199.427 114.47 198.273 119.019 202.712C125.343 208.884 124.057 216.904 121.883 224.466C148.357 207.571 119.082 176.929 102.783 199.534ZM296.339 418.6C290.258 418.852 284.462 420.292 278.293 420.269C276.254 420.539 274.239 420.776 272.183 420.875C270.134 419.718 268.191 418.513 265.749 418.6C279.427 431.643 301.308 432.112 312.177 415.619C306.727 416.148 301.679 417.574 296.339 418.6ZM290.011 404.657C291.573 406.478 310.6 408.983 314.582 412.261C317.324 407.081 319.414 401.712 321.846 396.396C311.358 399.567 300.637 401.988 290.011 404.657ZM272.183 120.258C278.19 121.473 290.696 124.598 296.339 121.689C289.703 119.014 283.245 112.189 281.01 105.419C277.217 109.135 273.42 115.088 272.183 120.258Z"/>
	<path fill="white" transform="matrix(1.29492 0 0 1.29492 -6.10352e-05 7.62939e-06)" d="M250.101 397.665C253.59 396.901 257.043 396.008 260.5 395.118C263.95 397.078 277.758 396.397 283.095 400.221C274.134 402.547 264.099 404.007 254.827 406.237C253.21 403.401 251.648 400.539 250.101 397.665Z"/>
	<path fill="white" transform="matrix(1.29492 0 0 1.29492 -6.10352e-05 7.62939e-06)" d="M122.694 112C124.859 111.144 126.745 109.75 128.893 108.871C135.055 106.35 147.032 107.187 150.146 114.288C152.31 119.226 150.332 123.291 148.337 127.674C136.597 134.682 118.614 122.563 122.694 112Z"/>
	<path fill="white" transform="matrix(1.29492 0 0 1.29492 -6.10352e-05 7.62939e-06)" d="M102.783 199.534C108.528 199.427 114.47 198.273 119.019 202.712C125.343 208.884 124.057 216.904 121.883 224.466C110.758 234.083 94.6878 217.536 102.783 199.534Z"/>
	<path fill="white" transform="matrix(1.29492 0 0 1.29492 -6.10352e-05 7.62939e-06)" d="M257.708 411C268.548 409.306 279.585 406.129 290.011 404.657C291.573 406.478 310.6 408.983 314.582 412.261C312.821 415.294 306.593 414.279 303.424 414.598C298.995 415.044 280.905 418.077 277.884 419.562L277.874 419.942L278.293 420.269C283.829 419.244 289.216 418.168 294.802 417.353C297.441 416.627 310.242 414.617 312.377 415.303L312.177 415.619C306.727 416.148 301.679 417.574 296.339 418.6C290.258 418.852 284.462 420.292 278.293 420.269C276.254 420.539 274.239 420.776 272.183 420.875C270.134 419.718 268.191 418.513 265.749 418.6C262.747 416.641 260.13 413.639 257.708 411Z"/>
	<path fill="white" transform="matrix(1.29492 0 0 1.29492 -6.10352e-05 7.62939e-06)" d="M132.282 284.688C134.269 285.534 136.463 285.003 138.543 285.291C151.54 287.096 162.274 306.373 147.072 309.986C135.894 307.447 130.336 297.712 129.27 286.752C130.225 285.944 131.209 285.32 132.282 284.688Z"/>
	<path fill="white" transform="matrix(1.29492 0 0 1.29492 -6.10352e-05 7.62939e-06)" d="M368.088 100.956C372.527 101.668 379.758 106.97 383.396 109.749C382.464 110.506 381.543 111.341 380.54 112C376.194 109.233 371.891 103.796 366.354 103.975C366.901 102.942 367.456 101.941 368.088 100.956Z"/>
	<path fill="#FFD000" transform="matrix(1.29492 0 0 1.29492 -6.10352e-05 7.62939e-06)" d="M360.082 95.9817C362.747 93.2166 367.376 87.4611 371.579 87.5038C380.417 87.5934 368.819 99.7869 368.088 100.956C367.456 101.941 366.901 102.942 366.354 103.975C363.759 107.504 356.617 112.47 355.45 105.9C354.821 102.356 358.104 98.654 360.082 95.9817Z"/>
	<path fill="#FFD000" transform="matrix(1.29492 0 0 1.29492 -6.10352e-05 7.62939e-06)" d="M383.396 109.749C386 108.305 388.404 106.633 391.509 107.586C398.919 109.861 390.215 116.522 388.279 119.314C385.042 123.988 384.099 129.898 377.464 128.619C376.176 127.597 375.229 126.433 374.347 125.061C373.343 121.128 375.056 118.416 377.464 115.37C378.554 114.333 379.537 113.124 380.54 112C381.543 111.341 382.464 110.506 383.396 109.749Z"/>
	<path fill="white" transform="matrix(1.29492 0 0 1.29492 -6.10352e-05 7.62939e-06)" d="M284.562 100.956L284.966 101.099C300.581 91.9686 297.829 118.858 316.623 109.269C331.203 101.83 321.518 91.4261 336.829 91.7321C336.263 102.487 346.434 106.08 346.787 91.7321C350.744 93.969 355.758 94.5516 360.082 95.9817C358.104 98.654 354.821 102.356 355.45 105.9C356.617 112.47 363.759 107.504 366.354 103.975C368.366 109.609 373.376 111.672 377.464 115.37C375.056 118.416 373.343 121.128 374.347 125.061C371.232 123.218 368.78 120.47 365.699 118.576C343.085 104.67 313.463 105.345 298.474 129.578C286.122 149.549 292.905 178.493 312.973 190.697C349.955 213.189 392.673 180.417 381.972 139.495C380.958 135.617 378.76 132.347 377.464 128.619C384.099 129.898 385.042 123.988 388.279 119.314C396.192 126.505 403.874 136.403 405.358 147.247C409.706 148.813 412.966 153.972 406.237 154.605C406.262 168.089 404.561 180.813 399.461 193.327C398.726 195.128 395.857 200.027 395.891 201.505C394.123 205.33 385.924 212.832 382.648 216.022C379.056 212.962 375.626 209.643 372.286 206.314C362.862 196.92 365.737 198.005 353.32 202.707C340.683 207.492 341.297 203.745 337.25 216.269L333.718 226.862C314.662 225.287 303.759 220.565 288.564 210.431C291.86 204.723 296.525 199.303 298.431 192.938C297.347 189.685 287.677 175.815 285.08 173.469C281.811 170.516 268.252 173.163 263.701 173.33C262.005 160.591 263.4 130.989 272.183 120.258C278.19 121.473 290.696 124.598 296.339 121.689C298.874 121.953 301.768 121.079 302.445 118.299C304.335 110.539 289.454 104.491 283.965 102.129L283.866 101.727L284.562 100.956Z"/>
	<path fill="#FFD000" transform="matrix(1.29492 0 0 1.29492 -6.10352e-05 7.62939e-06)" d="M406.237 154.605C400.031 153.951 379.17 151.921 386.806 145.885C389.264 143.942 402.051 146.59 405.358 147.247C409.706 148.813 412.966 153.972 406.237 154.605Z"/>
	<path fill="#FFD000" transform="matrix(1.29492 0 0 1.29492 -6.10352e-05 7.62939e-06)" d="M273.95 129.825C277.01 129.817 285.256 130.888 288.044 131.86C293.566 133.787 292.461 139.114 287.639 140.763C284.415 140.641 266.461 137.915 270.411 131.581C271.192 130.329 272.611 130.088 273.95 129.825Z"/>
	<path fill="white" transform="matrix(1.29492 0 0 1.29492 -6.10352e-05 7.62939e-06)" d="M307.117 168.464C299.773 162.744 299.103 147.073 306.137 140.763C302.8 151.543 302.786 157.917 307.117 168.464Z"/>
	<path fill="#FFD000" transform="matrix(1.29492 0 0 1.29492 -6.10352e-05 7.62939e-06)" d="M306.137 140.763C318.444 112.916 358.229 117.681 367.784 142.918C380.678 176.979 334.177 209.492 307.117 168.464C302.786 157.917 302.8 151.543 306.137 140.763ZM317.119 138.936C337.129 134.489 353.341 145.645 351.706 166.998C351.527 169.341 350.292 173.883 350.84 175.942C359.859 171.326 363.655 159.62 361.871 150.158C358.235 130.883 328.632 121.783 317.119 138.936Z"/>
	<path fill="white" transform="matrix(1.29492 0 0 1.29492 -6.10352e-05 7.62939e-06)" d="M317.119 138.936C337.129 134.489 353.341 145.645 351.706 166.998C351.527 169.341 350.292 173.883 350.84 175.942C338.29 185.321 314.245 173.055 312.556 155.951C312.02 150.522 313.585 143.197 317.119 138.936Z"/>
</svg>
