<?xml version="1.0" encoding="utf-8" ?>
<svg xmlns="http://www.w3.org/2000/svg" xmlns:xlink="http://www.w3.org/1999/xlink" width="333" height="333">
	<path fill="#FFD000" transform="matrix(0.650391 0 0 0.650391 3.05176e-05 0)" d="M244.07 101.996C253.94 101.566 285.807 102.931 293.553 109.728C300.436 115.767 304.83 199.655 305.827 213.517C308.848 208.832 310.989 203.203 313.456 198.187C319.609 185.673 325.729 173.008 331.545 160.331C335.229 152.303 337.834 140.917 346.85 137.24C355.701 133.631 376.943 143.558 380.468 152.392C384.506 162.511 376.543 172.456 372.259 181.19C368.253 189.356 364.17 197.703 360.559 206.046C381.154 214.145 386.699 238.698 403.914 248.504C410.967 248.099 418.107 248.756 424.156 252.675C429.761 256.306 442.002 267.626 445.134 273.362C457.995 296.915 426.541 343.635 411.687 359.942C399.66 373.146 385.121 383.647 367.702 371.183C365.508 369.614 363.531 367.746 361.416 366.073C351.175 357.971 328.602 353.528 314.735 349.473C314.626 354.27 315.416 359.268 315.797 364.06C315.443 371.832 318.418 380.668 317.702 389.722C311.899 397.939 302.149 392.971 294.043 391.814C255.945 386.376 216.451 394.482 179.237 401.924C162.612 405.248 140.484 411.747 123.791 407.915C86.3306 399.314 97.3416 349.759 96.473 320.813C94.8608 267.086 84.3866 213.855 69.5127 162.313C68.9692 160.429 68.6322 158.269 67.8499 156.489C66.3513 153.08 62.21 151.724 63.6667 147.272C65.1646 142.695 71.4227 142.666 73.688 148.193C85.9864 151.201 100.55 148.209 111.909 143.272C84.7359 129.016 112.758 84.2271 136.431 112.76C140.874 112.706 145.308 113.003 149.742 112.958C180.648 112.644 212.4 104.264 244.07 101.996ZM139.126 119.35C153.364 153.491 159.496 218.25 162.71 254.655C166.648 299.264 169.965 345.251 162.795 389.722C171.71 388.306 180.494 385.856 189.399 384.258C234.069 376.246 265.019 374.313 308.613 384.765L308.613 346.691C301.709 344.894 292.972 339.546 286.768 336.069C278.627 343.9 267.17 355.055 257.641 360.933C259.829 356.829 262.768 352.989 264.383 348.615C259.005 345.069 262.492 336.679 262.785 330.144C263.159 321.775 260.312 322.616 264.383 312.956C264.498 311.686 264.665 310.456 264.89 309.201C266.235 305.177 267.538 301.147 268.773 297.088C257.117 288.745 261.314 278.923 269.964 270.537C270.51 270.018 270.975 269.422 271.455 268.842C275.449 266.504 279.327 264.16 283.636 262.438C285.725 257.359 287.89 252.305 290.153 247.301C298.226 229.446 296.777 233.94 294.664 213.881C292.653 194.795 290.575 175.613 287.897 156.611L284.451 133.381C283.898 129.439 283.1 125.484 283.152 121.491C232.876 105.68 186.035 130.743 139.126 119.35ZM133.948 136.949C122.219 153.409 103.478 161.105 83.4501 155.782C80.4511 154.985 77.5693 153.859 74.518 153.25C97.7464 202.31 111.361 288.247 110.652 343.374C110.532 352.688 108.909 363.287 111.909 372.246C111.507 377.301 114.607 384.095 117.859 387.907C125.355 396.695 138.634 392.382 148.484 393.751C154.393 348.271 153.605 310.941 150.339 265.874C149.564 255.169 138.712 142.422 133.948 136.949ZM356.712 214.337C350.31 227.013 343.871 239.914 338.049 252.868C342.53 248.5 357.652 228.676 364.72 240.296C365.257 248.577 359.622 245.445 355.127 249.109C352.242 251.461 350.62 254.744 348.113 257.405C335.697 270.581 317.905 265.769 302.139 267.429C293.304 268.359 273.878 274.763 271.455 284.971C274.977 293.127 286.604 293.637 294.123 294.471C310.702 296.309 330.627 297.09 346.273 290.366C349.465 288.995 355.076 285.015 358.515 286.476C361.124 287.584 362.652 291.018 361.29 293.612C359.312 297.38 346.058 301.694 341.128 302.659C326.624 306.538 318.379 305.159 304.836 305.999C300.929 312.609 296.447 321.831 293.403 328.962C309.302 338.656 336.075 346.111 355.082 349.473C368.436 340.575 389.455 305.867 395.774 291.899C399.12 284.502 406.668 268.542 401.19 260.741C399.435 258.241 396.176 256.434 393.822 254.51C380.104 243.294 372.915 221.307 356.712 214.337ZM412.698 264.25C420.474 266.422 426.844 271.898 430.776 279.004C440.486 296.551 406.83 343.001 395.376 354.198C389.963 359.489 385.305 363.367 377.5 363.886C376.568 363.948 375.551 363.846 374.647 364.06C385.808 371.067 395.497 362.877 403.331 354.755C414.636 343.035 446.761 296.144 437.383 278.658C435.601 275.335 416.572 254.31 411.314 257.654C411.267 259.406 412.467 262.281 412.698 264.25ZM360.559 175.228C355.992 182.524 352.528 190.691 348.835 198.467L329.545 238.381C326.446 244.727 323.723 251.357 320.192 257.477L325.262 257.477C333.869 237.375 345.529 216.461 355.003 196.466L360.042 185.707C361.393 182.868 362.933 180.019 363.946 177.044C362.829 176.416 361.693 175.825 360.559 175.228ZM121.119 116.94C110.853 122.205 115.211 138.968 119.795 137.804C128.729 131.472 126.712 117.452 121.119 116.94ZM370.182 153.25C368.026 157.716 366.175 162.299 363.946 166.75C365.337 167.391 366.737 168.001 368.146 168.6C369.794 165.62 371.219 162.412 372.511 159.263C372.118 157.14 371.497 154.995 370.182 153.25Z"/>
	<path fill="white" transform="matrix(0.650391 0 0 0.650391 3.05176e-05 0)" d="M352.932 145.368C358.982 146.941 364.338 151.047 370.182 153.25C368.026 157.716 366.175 162.299 363.946 166.75C357.177 163.513 350.264 160.573 343.54 157.247C345.775 152.022 346.804 147.022 352.932 145.368Z"/>
	<path fill="white" transform="matrix(0.650391 0 0 0.650391 3.05176e-05 0)" d="M277.471 301.654C282.958 303 288.664 303.609 294.269 304.237C291.683 310.963 288.161 317.483 285.017 323.975L283.152 327.88C278.552 327.653 274.259 325.575 271.455 321.867C272.281 316.563 275.494 306.793 277.471 301.654Z"/>
	<path fill="white" transform="matrix(0.650391 0 0 0.650391 3.05176e-05 0)" d="M339.523 165.979C346.663 168.797 353.266 172.773 360.559 175.228C355.992 182.524 352.528 190.691 348.835 198.467L329.545 238.381C326.446 244.727 323.723 251.357 320.192 257.477C311.828 257.443 303.69 257.075 295.444 258.695C299.011 249.767 303.578 241.149 307.611 232.419C317.897 210.16 328.555 187.907 339.523 165.979Z"/>
	<path fill="white" transform="matrix(0.650391 0 0 0.650391 3.05176e-05 0)" d="M412.698 264.25C420.474 266.422 426.844 271.898 430.776 279.004C440.486 296.551 406.83 343.001 395.376 354.198C389.963 359.489 385.305 363.367 377.5 363.886C376.568 363.948 375.551 363.846 374.647 364.06C371.119 361.713 367.315 358.089 363.946 355.365C383.945 334.771 416.181 291.987 412.698 264.25Z"/>
	<path fill="white" transform="matrix(0.650391 0 0 0.650391 3.05176e-05 0)" d="M186.289 320.479C182.203 318.195 179.672 311.536 185.204 309.172C188.842 307.617 193.282 307.471 197.165 306.912C221.406 303.424 241.632 300.261 264.89 309.201C264.665 310.456 264.498 311.686 264.383 312.956C248.16 312.646 232.048 314.415 216.019 316.771L201.588 318.882C196.501 319.65 191.455 320.596 186.289 320.479Z"/>
	<path fill="white" transform="matrix(0.650391 0 0 0.650391 3.05176e-05 0)" d="M269.964 270.537C268.493 270.4 265.892 271.814 264.313 272.131C261.294 272.737 257.826 272.715 254.741 273.071C236.091 275.223 217.41 276.319 198.788 279.011C192.155 279.97 179.652 284.149 178.191 275.042C177 267.619 192.188 267.767 196.615 267.129C214.111 264.61 259.615 258.709 271.455 268.842C270.975 269.422 270.51 270.018 269.964 270.537Z"/>
	<path fill="white" transform="matrix(0.650391 0 0 0.650391 3.05176e-05 0)" d="M243.154 223.807C253.322 223.74 264.859 223.43 274.312 227.641C264.679 235.847 219.709 236.317 204.791 240.296C196.63 240.75 186.653 242.762 179.318 242.482C176.159 240.621 173.768 236.109 176.67 232.931C180.776 228.434 235.96 224.181 243.154 223.807Z"/>
	<path fill="#FFD000" transform="matrix(0.650391 0 0 0.650391 3.05176e-05 0)" d="M240.953 184.25C252.11 183.775 265.173 183.55 274.312 190.709C267.976 195.268 259.698 195.202 252.23 195.652L235.806 196.691C224.788 197.472 213.84 198.912 202.837 199.775L201.629 199.943C196.977 200.55 177.342 203.573 174.479 201.254C158.043 187.938 229.63 184.957 240.953 184.25Z"/>
</svg>
