<?xml version="1.0" encoding="utf-8" ?>
<svg xmlns="http://www.w3.org/2000/svg" xmlns:xlink="http://www.w3.org/1999/xlink" width="507" height="507">
	<path fill="white" transform="scale(0.990234 0.990234)" d="M414.771 142.091C418.143 143.821 420.095 146.915 422.513 149.739C417.959 153.943 399.244 170.23 394.579 171.385C390.65 170.103 389.432 167.459 388.334 163.752C392.676 162.359 409.256 146.047 414.771 142.091Z"/>
	<path fill="white" transform="scale(0.990234 0.990234)" d="M443.283 164.637C447.144 159.449 446.755 146.973 447.536 140.628C449.318 126.153 451.221 111.635 453.646 97.2514C456.048 97.2329 459.525 96.8575 461.374 98.6919C464.698 101.988 459.453 124.593 458.795 129.505C457.567 138.677 456.475 147.836 455.038 156.981C453.823 164.713 451.234 178.934 443.283 164.637Z"/>
	<path fill="white" transform="scale(0.990234 0.990234)" d="M426.538 370.159L426.848 370.202C437.406 371.61 438.032 376.999 438.01 386.424L438.034 408.824C438.255 428.306 432.164 426.431 414.106 426.384C385.144 426.308 355.864 424.837 327.292 419.803C324.44 419.301 308.057 417.054 306.75 415.986C317.871 415.089 329.904 416.866 341.124 416.946C361.8 417.093 382.625 417.408 403.274 416.358C423.184 415.346 426.61 418.896 426.55 396.567L426.538 370.159Z"/>
	<path fill="#FFD700" transform="scale(0.990234 0.990234)" d="M394.579 116.537C390.698 112.111 370.132 98.9214 380.495 92.9462C382.833 91.598 437.797 83.526 447.226 82.4718C451.022 82.0474 452.935 83.0794 454.75 86.498C454.851 90.1093 454.023 93.6719 453.646 97.2514C451.221 111.635 449.318 126.153 447.536 140.628C446.755 146.973 447.144 159.449 443.283 164.637C435.651 168.874 427.783 155.376 422.513 149.739C420.095 146.915 418.143 143.821 414.771 142.091C409.256 146.047 392.676 162.359 388.334 163.752C386.494 163.801 385.101 163.676 383.59 162.532C376.138 156.892 387.852 150.161 391.598 146.968L405.659 135.048C408.864 132.298 411.59 128.616 416.005 128.099C414.265 118.162 423.146 114.258 429.717 108.982C432.843 106.471 438.301 100.712 441.813 99.4487C442.24 97.8601 442.716 96.3236 443.283 94.7794C427.58 96.7111 411.759 99.1979 396.196 102.038C400.126 106.01 413.942 114.864 406.022 121.132C401.67 124.575 395.063 127.735 390.142 130.741C375.718 139.55 361.2 148.412 346.531 156.812C345.635 172.19 332.527 180.15 318.754 173.486C309.877 183.874 293.886 199.427 283.407 208.73C288.864 234.906 250.199 239.273 249.611 212.629C236.861 206.459 224.359 199.845 211.491 193.876C205.282 200.199 196.033 203.023 188.83 196.444C178.858 204.632 162.081 214.185 150.767 220.627C154.928 234.08 139.147 245.22 127.572 237.033C111.264 225.499 130.032 201.444 145.39 213.395C158.358 205.414 171.51 197.37 184.029 188.725C183.427 164.384 212.395 164.239 214.792 184.996C227.575 190.958 240.262 197.266 252.882 203.568C261.634 197.317 268.151 193.528 278.379 200.797C288.392 189.811 301.654 176.883 312.546 166.731C302.769 150.397 326.129 130.919 342.708 148.112C348.364 145.232 353.812 141.556 359.252 138.267L394.579 116.537Z"/>
	<path fill="white" transform="scale(0.990234 0.990234)" d="M441.813 99.4487C440.021 115.5 437.445 131.988 435.38 148.112C432.88 143.932 420.628 128.53 416.005 128.099C414.265 118.162 423.146 114.258 429.717 108.982C432.843 106.471 438.301 100.712 441.813 99.4487Z"/>
	<path fill="#FFD700" transform="scale(0.990234 0.990234)" d="M108.748 390.443C108.681 398.518 112.51 417.839 106.92 422.79C99.7527 429.138 61.748 429.108 60.335 415.246C59.9913 411.874 60.3095 408.277 60.4413 404.889L61.1648 388.23C62.7254 352.808 60.4302 314.802 58.5296 279.467L50.4992 156.049C49.9525 149.252 49.1473 143.869 55.0503 138.976C67.0024 129.067 90.433 129.077 100.928 142.091C144.848 131.616 180.984 134.449 225.377 139.062C242.82 140.875 265.744 144.658 283.118 143.714C287.789 143.46 297.297 140.506 299.054 146.897C303.402 162.718 250.241 153.408 242.462 152.659C188.555 147.471 155.842 141.65 102.738 153.501C101.88 167.131 103.048 181.168 103.453 194.8L107.75 378.979C110.549 379.141 113.421 378.991 116.226 378.979C116.227 349.279 114.924 319.569 114.874 289.876C114.848 273.996 136.181 275.964 146.355 275.881L174.337 275.75C175.006 264.708 170.316 249.727 178.624 240.832C184.404 234.644 191.705 235.673 199.334 235.49L221.13 234.773C245.104 234.036 244.181 238.195 245.035 260.134C245.417 269.935 246.004 279.809 245.943 289.616C259.467 289.853 281.678 289.118 294.893 287.702C294.433 279.473 294.519 271.132 294.263 262.885C293.363 233.864 292.494 227.607 323.637 228.475C332.515 228.723 344.607 229.23 353.44 228.578L353.755 228.552C353.833 217.121 350.184 195.82 356.533 187.988C363.132 179.848 375.609 182.017 384.827 181.65C400.611 181.022 420.434 175.111 423.67 196.128C425.016 204.864 424.665 214.211 424.615 223.04L425.325 296.336C425.799 320.779 424.89 346.037 426.538 370.159L426.55 396.567C426.61 418.896 423.184 415.346 403.274 416.358C382.625 417.408 361.8 417.093 341.124 416.946C329.904 416.866 317.871 415.089 306.75 415.986C301.39 415.017 295.521 415.304 290.086 415.016C271.003 414.006 251.835 413.445 232.734 414.352C204.052 415.714 175.543 420.366 146.88 422.273L133.842 423.118C127.38 423.569 118.529 425.892 117.537 416.953C120.371 409.536 129.04 411.472 135.537 411.019C146.169 410.277 156.806 409.582 167.418 408.593L214.736 403.948C226.546 402.876 238.539 401.764 250.409 402.084C253.507 401.774 256.543 400.949 259.664 400.65C278.022 398.887 297.288 397.13 315.605 396.041C344.74 394.308 372.687 394.528 401.749 394.314C406.064 394.282 410.482 394.733 414.771 394.288C414.783 390.446 414.824 386.623 414.29 382.809C406.308 383.225 398.534 382.116 390.624 382.126C358.263 382.168 325.841 381.673 293.486 382.62C272.537 383.234 251.683 385.011 230.772 386.212C190.169 388.546 149.429 390.499 108.748 390.443ZM365.848 370.159C367.629 370.226 369.424 370.172 371.207 370.159L371.205 226.937C371.203 221.413 369.999 211.221 371.984 206.14C377.248 201.292 404.483 201.493 407.752 205.538C409.004 207.086 408.401 244.968 408.401 249.873L408.404 356.223C408.405 359.893 408.855 367.628 408.401 370.747C410.524 371.051 412.625 371.355 414.771 371.444L413.24 232.613C413.257 224.628 414.802 200.297 411.096 193.502C409.688 190.921 379.642 192.494 372.542 192.705C360.482 193.063 363.848 202.365 364.447 210.731C365.097 219.82 365.044 228.833 365.11 237.937L365.842 357.753C365.834 361.885 365.55 366.035 365.848 370.159ZM71.8159 412.932C73.2879 413.328 74.7854 413.823 76.3011 414.001C80.1498 404.374 81.4721 346.022 81.0614 333.698C79.7551 294.492 77.0156 255.489 74.0769 216.395C72.9243 201.063 68.2888 163.507 72.4237 153.606C75.1892 146.984 82.048 148.088 87.5632 145.651C80.7948 142.546 64.0401 143.298 61.2924 148.731C60.7516 149.8 62.4372 163.516 62.6182 165.668C64.9018 192.826 66.2392 219.996 67.8829 247.187C70.7368 294.399 74.0145 341.972 72.5058 389.302L71.9365 403.146C71.7896 406.365 71.4985 409.723 71.8159 412.932ZM306.375 370.747C308.063 370.501 309.803 370.157 311.509 370.159L311.505 270.249C311.507 265.688 311.053 260.376 312.082 255.933C313.886 248.142 343.114 247.019 347.922 255.053C349.422 266.11 348.196 278.52 348.511 289.78C348.721 297.285 349.444 304.794 349.666 312.301L350.326 344.63C350.5 353.129 350.36 361.657 350.355 370.159C352.566 370.141 354.787 370.08 356.997 370.159C357.259 362.034 356.542 353.788 356.323 345.658L354.323 282.996C354.287 281.45 354.673 279.918 354.689 278.369C354.794 267.95 355.026 250.328 353.755 240.58C344.626 239.387 335.423 240.105 326.24 239.877C308.18 239.429 305.595 235.062 305.717 253.709L306.375 370.747ZM184.545 376.212C186.812 376.338 189.008 376.387 191.273 376.212C191.988 356.846 190.743 337.229 190.153 317.874C189.613 300.18 189.801 280.953 189.961 263.176C189.998 258.979 190.549 256.037 195.045 255.364C200.602 254.533 214.429 254.058 220.081 254.214C231.043 254.516 228.861 264.465 229.161 272.39L230.465 316.868C230.756 329.96 230.39 343.096 230.486 356.195C230.53 362.242 231.399 368.236 230.975 374.294C233.28 373.978 235.496 373.732 237.828 373.731C234.389 337.077 234.613 297.468 233.405 260.576C233.249 255.836 232.919 250.982 233.242 246.249C220.835 246.145 203.631 246.35 191.272 247.339C186.96 247.684 185.372 249.497 185.422 254.055C185.816 289.479 186.627 323.48 185.176 359.005C184.943 364.706 184.341 370.513 184.545 376.212ZM127.496 378.203C129.417 378.271 131.315 378.274 133.237 378.203C132.838 369.239 129.171 302.937 132.923 299.427C136.951 295.659 148.119 297.325 153.185 297.303C158.772 297.278 169.363 294.795 170.225 302.881C171.462 314.492 170.455 326.636 170.695 338.335L171.373 364.751C171.454 369.089 171.825 373.213 171.334 377.559C173.487 377.382 175.532 377.247 177.682 377.559C178.259 348.184 175.114 317.019 175.013 287.162C163.042 286.715 143.054 286.982 131.122 288.025C122.624 288.767 126.212 300.045 126.278 307.019C126.434 323.65 126.994 340.284 127.362 356.911L127.553 370.627C127.581 373.15 127.734 375.687 127.496 378.203ZM245.943 301.276C246.319 306.037 245.979 310.908 245.953 315.686C245.853 334.302 243.882 355.558 244.765 373.731C246.632 373.389 248.527 372.951 250.409 372.727L250.414 330.321C250.427 323.48 248.286 315.247 252.882 309.529C259.718 308.939 277.335 308.948 284.148 309.55C288.245 309.912 289.854 312.726 290.261 316.593C291.342 326.851 290.372 340.351 290.508 350.935C290.593 357.543 291.769 364.142 291.087 370.747L298.218 370.747C298.275 364.574 297.863 358.427 297.627 352.261L296.207 316.399C296.003 310.759 295.621 305.139 295.755 299.49C279.101 299.328 262.553 300.963 245.943 301.276Z"/>
	<path fill="white" transform="scale(0.990234 0.990234)" d="M250.409 402.084C253.507 401.774 256.543 400.949 259.664 400.65C278.022 398.887 297.288 397.13 315.605 396.041C344.74 394.308 372.687 394.528 401.749 394.314C406.064 394.282 410.482 394.733 414.771 394.288L414.771 403.7C378.896 407.096 335.968 405.102 299.937 403.608C283.791 402.939 266.533 401.266 250.409 402.084Z"/>
	<path fill="white" transform="scale(0.990234 0.990234)" d="M252.882 309.529C259.718 308.939 277.335 308.948 284.148 309.55C288.245 309.912 289.854 312.726 290.261 316.593C291.342 326.851 290.372 340.351 290.508 350.935C290.593 357.543 291.769 364.142 291.087 370.747C278.983 371.5 262.198 373.101 250.409 372.727L250.414 330.321C250.427 323.48 248.286 315.247 252.882 309.529Z"/>
	<path fill="white" transform="scale(0.990234 0.990234)" d="M133.237 378.203C132.838 369.239 129.171 302.937 132.923 299.427C136.951 295.659 148.119 297.325 153.185 297.303C158.772 297.278 169.363 294.795 170.225 302.881C171.462 314.492 170.455 326.636 170.695 338.335L171.373 364.751C171.454 369.089 171.825 373.213 171.334 377.559C159.359 376.627 145.761 378.746 133.237 378.203Z"/>
	<path fill="white" transform="scale(0.990234 0.990234)" d="M87.5632 145.651C88.4798 145.802 89.3427 145.979 90.2326 146.247L94.5198 332.962C95.1964 356.463 96.0102 379.999 97.6454 403.456C97.8834 406.871 98.3069 410.359 98.0932 413.78L98.081 414.001C92.8977 415.324 81.6282 415.441 76.3011 414.001C80.1498 404.374 81.4721 346.022 81.0614 333.698C79.7551 294.492 77.0156 255.489 74.0769 216.395C72.9243 201.063 68.2888 163.507 72.4237 153.606C75.1892 146.984 82.048 148.088 87.5632 145.651Z"/>
	<path fill="white" transform="scale(0.990234 0.990234)" d="M311.509 370.159L311.505 270.249C311.507 265.688 311.053 260.376 312.082 255.933C313.886 248.142 343.114 247.019 347.922 255.053C349.422 266.11 348.196 278.52 348.511 289.78C348.721 297.285 349.444 304.794 349.666 312.301L350.326 344.63C350.5 353.129 350.36 361.657 350.355 370.159L311.509 370.159Z"/>
	<path fill="white" transform="scale(0.990234 0.990234)" d="M191.273 376.212C191.988 356.846 190.743 337.229 190.153 317.874C189.613 300.18 189.801 280.953 189.961 263.176C189.998 258.979 190.549 256.037 195.045 255.364C200.602 254.533 214.429 254.058 220.081 254.214C231.043 254.516 228.861 264.465 229.161 272.39L230.465 316.868C230.756 329.96 230.39 343.096 230.486 356.195C230.53 362.242 231.399 368.236 230.975 374.294C217.773 374.11 204.507 376.282 191.273 376.212Z"/>
	<path fill="white" transform="scale(0.990234 0.990234)" d="M371.984 206.14C377.248 201.292 404.483 201.493 407.752 205.538C409.004 207.086 408.401 244.968 408.401 249.873L408.404 356.223C408.405 359.893 408.855 367.628 408.401 370.747C397.501 371.541 382.22 370.757 371.207 370.159L371.205 226.937C371.203 221.413 369.999 211.221 371.984 206.14Z"/>
</svg>
