<?xml version="1.0" encoding="utf-8" ?>
<svg xmlns="http://www.w3.org/2000/svg" xmlns:xlink="http://www.w3.org/1999/xlink" width="299" height="299">
	<path fill="#202020" transform="scale(0.583984 0.583984)" d="M323.52 268.065L440.099 268.062C444.868 268.059 449.681 267.877 454.443 268.065C459.056 272.499 455.912 275.533 450.744 275.325L320.855 275.325C316.307 272.03 318.981 268.367 323.52 268.065Z"/>
	<path fill="#202020" transform="scale(0.583984 0.583984)" d="M383.779 139.951C401.101 133.24 402.624 135.221 421.315 135.224C425.163 135.224 434.138 133.804 437.043 136.51C438.42 140.96 437.75 165.55 437.751 171.816L437.746 247.538C440.46 247.537 450.666 246.869 452.643 248.586C455.07 250.692 453.547 254.712 450.472 254.989C447.242 255.279 443.683 254.98 440.424 254.981L417.125 254.994L325.981 254.994C322.368 254.997 314.206 256.923 313.812 251.504C313.35 245.139 332.047 247.524 335.891 247.538L335.894 177.791C335.893 172.79 334.848 145.05 336.336 142.319C338.402 138.525 350.948 135.811 354.924 135.245C360.247 135.008 370.378 134.654 375.169 136.301C378.005 137.276 380.511 138.971 383.404 139.84L383.779 139.951ZM397.841 142.419C393.424 142.903 390.196 144.866 386.747 147.553L386.747 226.982C396.808 221.083 405.872 223.07 417.125 223.816C421.548 223.802 425.936 224.067 430.358 223.816L430.358 142.419L408.511 142.401C405.033 142.398 401.285 142.087 397.841 142.419Z"/>
	<path fill="#8F8F8F" transform="scale(0.583984 0.583984)" d="M365.493 230.78L365.757 230.725C375.586 228.732 376.911 236.866 382.346 237.861C387.047 238.721 391.344 231.698 396.131 230.836C403.056 229.59 421.689 231.456 430.358 231.431L430.358 247.538L415.625 247.538L343.087 247.538L343.087 231.431C350 230.912 358.615 230.413 365.493 230.78Z"/>
	<path fill="#BABABA" transform="scale(0.583984 0.583984)" d="M355.724 142.419C364.456 141.956 372.584 141.784 379.773 147.553L379.773 226.982C376.714 225.204 373.837 223.687 370.325 223.058C361.327 222.471 352.112 223.717 343.087 223.816L343.087 146.232C347.186 144.591 351.344 143.089 355.724 142.419Z"/>
	<path fill="#202020" transform="scale(0.583984 0.583984)" d="M398.69 163.188C403.054 163.174 414.992 162.668 418.454 163.383C423.072 164.338 423.421 168.338 419.359 170.329L406.784 170.361C404.055 170.366 394.536 171.276 396.171 166.004C396.656 164.44 397.258 163.916 398.69 163.188Z"/>
	<path fill="#202020" transform="scale(0.583984 0.583984)" d="M397.841 181.687C402.942 181.454 428.982 179.255 420.365 188.781C416.456 189.081 398.069 189.547 396.613 187.617C395.198 185.743 396.043 182.941 397.841 181.687Z"/>
	<path fill="#202020" transform="scale(0.583984 0.583984)" d="M398.69 199.22C403.726 199.114 423.863 197.034 421.904 203.741C421.493 205.146 420.598 205.88 419.359 206.563C414.175 206.776 393.385 208.848 395.989 201.554C396.441 200.286 397.555 199.772 398.69 199.22Z"/>
	<path fill="#202020" transform="scale(0.583984 0.583984)" d="M209.822 84.0171C223.07 83.1723 236.372 86.191 247.296 93.9484C254.268 98.8997 251.07 99.2612 260.118 101.146C264.939 102.151 269.542 105.207 272.889 108.739C285.937 122.503 278.678 140.952 278.486 156.833C300.935 163.079 296.969 200.603 271.47 199.22C267.316 213.482 256.67 224.354 244.496 232.194L244.496 243.841L259.905 243.827C290.048 243.811 292.775 249.709 307.628 272.057L329.119 304.302C332.911 309.928 334.794 314.971 340.859 318.399C351.873 324.623 355.148 336.718 348.784 347.7C342.992 357.695 312.923 363.502 300.51 366.739C300.507 377.099 300.779 387.522 300.51 397.873C306.7 384.411 318.432 386.664 331.172 386.663L363.237 386.673L363.24 353.964C363.237 348.833 362.801 343.381 363.294 338.294C363.751 333.588 370.205 335.214 373.566 335.225L388.764 335.249C388.693 316.344 390.531 317.249 407.363 308.455C415.022 304.454 422.59 300.254 430.358 296.465C439.598 300.679 430.712 304.536 426.053 306.962C420.807 309.693 400.831 319.158 397.818 322.199C395.007 325.037 395.848 331.558 395.883 335.249L409.578 335.223C422.392 335.203 420.392 335.752 420.378 347.841L420.365 418.812C420.758 425.28 406.8 422.758 401.93 422.76L330.996 422.763C316.092 422.758 308.678 425.81 299.835 411.555C292.606 424.186 284.61 422.772 272.032 422.767L76.8624 422.757C74.1293 422.756 71.3272 422.884 68.6004 422.729C65.0649 422.527 59.1699 414.957 76.7496 415.689C76.8682 407.959 76.7595 400.212 76.7496 392.479C73.8026 392.694 59.5009 393.088 57.7055 392.028C56.1028 391.081 54.8673 359.829 57.6154 356.082C59.851 355.087 90.6324 355.617 95.5419 355.621C80.5973 342.661 83.5286 322.546 103.247 317.102C104.67 312.317 108.834 307.687 111.551 303.54L138.132 263.335C149.285 245.768 156.342 243.814 177.96 243.82L195.145 243.841L195.145 231.431L195.069 231.402C182.318 226.631 172.296 211.08 167.435 199.22C143.217 197.701 138.211 165.501 158.464 156.833C149.426 121.705 174.497 88.0603 209.822 84.0171Z"/>
	<path fill="#FFB400" transform="scale(0.583984 0.583984)" d="M276.936 163.188C287.525 169.112 290.005 185.276 278.486 190.886C276.904 191.555 275.206 191.884 273.54 192.275C273.813 190.298 274.024 188.287 274.421 186.331C274.873 178.616 275.185 170.746 276.936 163.188Z"/>
	<path fill="#FFB400" transform="scale(0.583984 0.583984)" d="M160.387 164.17C161.106 164.657 161.779 170.805 165.258 173.358C165.235 179.664 165.391 185.971 165.258 192.275C163.6 191.649 161.982 190.776 160.387 190.004C150.024 183.942 151.049 170.39 160.387 164.17Z"/>
	<path fill="#FFB400" transform="scale(0.583984 0.583984)" d="M202.023 235.441C216.205 238.694 223.167 239.507 237.562 235.441L237.562 243.841C234.616 244.484 230.05 247.751 226.203 248.723C213.736 251.873 204.15 242.309 202.023 242.985C202.022 240.471 201.995 237.954 202.023 235.441Z"/>
	<path fill="#FFD100" transform="scale(0.583984 0.583984)" d="M202.023 242.985C204.15 242.309 213.736 251.873 226.203 248.723C230.05 247.751 234.616 244.484 237.562 243.841C237.65 250.663 238.178 256.758 233.05 262.044C225.964 269.348 214.052 269.579 206.906 262.24C201.493 256.68 201.966 250.211 202.023 242.985Z"/>
	<path fill="#BABABA" transform="scale(0.583984 0.583984)" d="M244.496 251.029L261.004 251.016C288.52 251.029 288.81 257.233 302.158 277.023C310.096 288.793 320.853 303.546 327.808 315.715L318.698 318.188C317.36 317.105 314.501 311.569 313.311 309.725L295.777 283.014C276.791 253.886 277.31 259.825 242.893 259.803C244.108 256.76 244.607 254.315 244.496 251.029Z"/>
	<path fill="#BABABA" transform="scale(0.583984 0.583984)" d="M111.397 317.102L139.243 274.728C152.713 254.373 152.044 250.974 179.493 251.016L195.145 251.029C195.243 254.169 195.557 256.83 196.622 259.803C192.47 259.572 188.236 259.8 184.071 259.797C162.468 259.782 161.018 258.19 149.51 275.441L127.35 309.165C125.212 312.471 122.968 315.686 121.038 319.124L111.397 317.102Z"/>
	<path fill="#4D4D4D" transform="scale(0.583984 0.583984)" d="M104.526 324.286C110.774 323.684 117.355 325.707 123.437 326.98L137.826 329.865L137.826 355.621C134.403 355.404 130.977 355.208 127.559 354.925C121.134 353.983 106.501 353.082 101.403 350.41C89.0115 343.914 91.7833 327.72 104.526 324.286Z"/>
	<path fill="#4D4D4D" transform="scale(0.583984 0.583984)" d="M330.074 323.092C341.252 321.724 348.469 334.846 342.664 343.934C338.795 349.992 320.129 354.054 312.645 355.621C308.678 356.961 304.643 358.26 300.51 358.972L300.51 330.923C307.517 328.446 323.001 323.904 330.074 323.092Z"/>
	<path fill="#F4B000" transform="scale(0.583984 0.583984)" d="M168.324 165.981C165.006 159.213 163.498 148.884 163.872 141.475C166.281 93.8308 221.831 73.826 252.321 108.354C262.678 106.325 271.693 114.46 273.27 124.592C274.709 133.846 271.85 153.539 269.863 162.942L268.557 160.396C269.521 157.327 269.815 133.177 269.455 129.957C268.351 120.068 259.327 115.479 250.032 115.465C238.428 96.9006 210.275 94.4017 192.771 105.33C181.398 112.431 173.481 124.662 170.574 137.623C169.178 143.848 167.568 155.73 171.237 161.272C170.376 162.906 169.334 164.436 168.324 165.981Z"/>
	<path fill="#FFEE32" transform="scale(0.583984 0.583984)" d="M144.917 323.092C145.097 307.98 162.122 311.505 172.249 311.502L259.185 311.497C270.815 311.499 289.89 307.226 293.378 320.939C291.387 320.506 281.938 320.685 278.949 320.672L170.485 320.92C159.311 320.893 155.31 322.005 144.917 323.092Z"/>
	<path fill="#BABABA" transform="scale(0.583984 0.583984)" d="M344.991 393.901L358.495 393.873C363.883 393.843 370.014 392.934 374.395 396.838C380.599 402.367 378.079 413.113 369.901 415.19C365.934 416.198 361.23 415.713 357.143 415.709L339.375 415.689L325.03 415.691C321.413 415.69 317.356 416.045 313.83 415.185C302.961 412.533 303.815 397.022 314.801 394.472C318.925 393.515 323.738 393.882 327.968 393.882L344.991 393.901Z"/>
	<path fill="#F0FF00" transform="scale(0.583984 0.583984)" d="M63.7675 362.563L137.826 362.563L137.826 385.307L63.7675 385.307C63.6479 377.733 63.7646 370.139 63.7675 362.563Z"/>
	<path fill="#F4B000" transform="scale(0.583984 0.583984)" d="M83.9775 392.479L162.158 392.479C162.226 402.368 160.69 407.006 166.429 415.689C163.507 415.441 160.466 415.655 157.532 415.667L83.9775 415.689L83.9775 392.479Z"/>
	<path fill="#B6B6B6" transform="scale(0.583984 0.583984)" d="M370.325 342.451C374.522 342.269 378.797 342.437 383 342.439L407.743 342.451L413.178 342.451L413.178 415.689C410.084 416.058 406.64 415.69 403.502 415.687L381.287 415.689C389.681 402.411 384.126 392.158 370.325 386.673L370.325 342.451Z"/>
	<path fill="#BABABA" transform="scale(0.583984 0.583984)" d="M407.743 342.451L413.178 342.451L413.178 415.689C411.371 415.408 409.56 415.59 407.743 415.689L407.743 342.451Z"/>
	<path fill="#D0A000" transform="scale(0.583984 0.583984)" d="M171.237 161.272C167.568 155.73 169.178 143.848 170.574 137.623C173.481 124.662 181.398 112.431 192.771 105.33C210.275 94.4017 238.428 96.9006 250.032 115.465C259.327 115.479 268.351 120.068 269.455 129.957C269.815 133.177 269.521 157.327 268.557 160.396C265.059 154.664 260.939 148.892 255.886 144.398C256.433 140.748 257.968 133.067 256.53 129.806L256.091 129.524C254.863 130.418 251.181 139.279 249.923 141.407C240.804 156.831 217.823 164.389 200.472 163.188C204.949 158.548 206.853 153.255 206.711 146.824C206.485 136.581 202.066 140.149 195.807 142.335C190.791 144.088 179.276 146.604 176.068 150.544C173.575 153.607 173.134 157.884 171.237 161.272Z"/>
	<path fill="#FFD100" transform="scale(0.583984 0.583984)" d="M198.869 148.739L199.265 148.738L199.515 149.099C199.081 163.39 182.087 163.099 187.381 168.725C189.479 170.955 195.129 170.449 198.092 170.459C219.708 170.537 236.909 166.505 252.321 151.188C257.889 156.398 266.505 168.507 267.695 175.332C269.792 187.357 262.47 204.044 255.886 213.635C235.677 235.707 205.582 237.821 185.039 215.258C173.248 202.308 171.3 189.069 172.035 172.265C174.681 169.182 176.977 166.154 178.52 162.354C183.423 150.277 186.117 152.958 198.869 148.739Z"/>
	<path fill="#4D4D4D" transform="scale(0.583984 0.583984)" d="M242.893 259.803C277.31 259.825 276.791 253.886 295.777 283.014L313.311 309.725C314.501 311.569 317.36 317.105 318.698 318.188C312.605 319.714 306.485 321.139 300.51 323.092C300.896 312.009 292.666 305.313 282.263 304.436C282.269 299.963 282.417 295.444 282.263 290.976C281.438 289.872 280.581 288.717 279.112 288.537C273.126 287.8 275.232 301.122 275.226 304.436L162.158 304.436C162.186 301.066 163.032 291.83 160.669 289.563C153.27 282.462 154.896 303.546 154.861 304.436C143.782 305.417 139.139 312.112 137.826 322.458C132.283 321.22 126.651 320 121.038 319.124C122.968 315.686 125.212 312.471 127.35 309.165L149.51 275.441C161.018 258.19 162.468 259.782 184.071 259.797C188.236 259.8 192.47 259.572 196.622 259.803C207.039 279.808 231.83 280.218 242.893 259.803Z"/>
	<path fill="#FFEE32" transform="scale(0.583984 0.583984)" d="M144.917 323.092C155.31 322.005 159.311 320.893 170.485 320.92L278.949 320.672C281.938 320.685 291.387 320.506 293.378 320.939L293.391 395.785C293.426 415.678 291.095 415.737 273.567 415.703L184.201 415.712C160.147 415.638 173.484 391.553 168.111 386.223C166.175 384.301 148.225 385.307 144.917 385.307L144.917 323.092Z"/>
	<path fill="#202020" transform="scale(0.583984 0.583984)" d="M215.568 344.324C226.452 342.978 235.658 350.353 237.146 361.179C239.337 377.123 219.499 388.209 207.061 378.389C202.12 383.626 196.582 388.412 191.938 393.901C188.753 396.595 183.526 405.402 178.837 401.629C175.322 398.8 182.452 393.109 184.257 391.235C189.824 385.457 196.689 379.321 201.78 373.3L202.023 373.011C196.307 360.343 200.619 346.755 215.568 344.324Z"/>
	<path fill="#B6B6B6" transform="scale(0.583984 0.583984)" d="M216.973 351.311C231.362 350.391 235.517 370.098 219.781 375.11C204.893 377.103 201.251 354.43 216.973 351.311Z"/>
</svg>
